<svg width="18" height="18" viewBox="0 0 18 18" fill="none" xmlns="http://www.w3.org/2000/svg">
<path d="M15 9L13.5 9.375C12.8454 9.43226 12.1862 9.34546 11.5687 9.12072C10.9513 8.89597 10.3905 8.53873 9.9259 8.0741C9.46126 7.60946 9.10402 7.04871 8.87928 6.43125C8.65453 5.81378 8.56774 5.15459 8.625 4.5L9 3M15 9L9 3M15 9C15 10.1867 14.6481 11.3467 13.9888 12.3334C13.3295 13.3201 12.3925 14.0892 11.2961 14.5433C10.1997 14.9974 8.99335 15.1162 7.82946 14.8847C6.66557 14.6532 5.59648 14.0818 4.75736 13.2426C3.91825 12.4035 3.3468 11.3344 3.11529 10.1705C2.88378 9.00666 3.0026 7.80026 3.45673 6.7039C3.91085 5.60754 4.67989 4.67047 5.66658 4.01118C6.65328 3.35189 7.81331 3 9 3" stroke="#28635B" stroke-width="1.5" stroke-linecap="round" stroke-linejoin="round"/>
</svg>
