<svg width="22" height="22" viewBox="0 0 22 22" fill="none" xmlns="http://www.w3.org/2000/svg">
<path d="M1.83337 16.5V19.25C1.83337 19.8 2.20004 20.1666 2.75004 20.1666H6.41671V17.4166H9.16671V14.6666H11L12.2834 13.3833C13.5574 13.8271 14.9443 13.8254 16.2172 13.3785C17.4902 12.9316 18.5737 12.0659 19.2907 10.9231C20.0077 9.78027 20.3156 8.42797 20.1641 7.0874C20.0125 5.74683 19.4106 4.49737 18.4566 3.54341C17.5026 2.58945 16.2532 1.98748 14.9126 1.83596C13.572 1.68444 12.2197 1.99234 11.0769 2.70931C9.93411 3.42628 9.06843 4.50986 8.62152 5.78278C8.1746 7.05571 8.17291 8.44262 8.61671 9.71664L1.83337 16.5Z" stroke="#0A9EF3" stroke-width="2" stroke-linecap="round" stroke-linejoin="round"/>
<path d="M15.125 7.33333C15.3782 7.33333 15.5834 7.12813 15.5834 6.87499C15.5834 6.62186 15.3782 6.41666 15.125 6.41666C14.8719 6.41666 14.6667 6.62186 14.6667 6.87499C14.6667 7.12813 14.8719 7.33333 15.125 7.33333Z" stroke="#0A9EF3" stroke-width="2" stroke-linecap="round" stroke-linejoin="round"/>
</svg>
