<svg width="22" height="22" viewBox="0 0 22 22" fill="none" xmlns="http://www.w3.org/2000/svg">
<path fill-rule="evenodd" clip-rule="evenodd" d="M10.9999 1.75479C10.4544 1.75479 9.91762 1.89213 9.4391 2.15414C8.96058 2.41614 8.55571 2.7944 8.26182 3.25403C8.09187 3.51984 7.77373 3.65086 7.46587 3.58184C6.93193 3.46213 6.3764 3.47918 5.85079 3.6314C5.32519 3.78362 4.84653 4.06609 4.45919 4.45261C4.07186 4.83914 3.78839 5.31721 3.63506 5.84249C3.48174 6.36777 3.46353 6.92327 3.58212 7.45746C3.65065 7.76615 3.51822 8.08466 3.25102 8.25376C2.78786 8.54687 2.40636 8.95236 2.142 9.43252C1.87764 9.91267 1.73901 10.4519 1.73901 11C1.73901 11.5481 1.87764 12.0873 2.142 12.5675C2.40636 13.0476 2.78786 13.4531 3.25102 13.7463C3.51822 13.9154 3.65065 14.2339 3.58212 14.5425C3.46353 15.0767 3.48174 15.6322 3.63506 16.1575C3.78839 16.6828 4.07186 17.1609 4.45919 17.5474C4.84653 17.9339 5.32519 18.2164 5.85079 18.3686C6.37639 18.5208 6.93192 18.5379 7.46587 18.4182C7.77435 18.349 8.09308 18.4807 8.26276 18.7475C8.55627 19.2088 8.96145 19.5887 9.44078 19.8519C9.92012 20.1151 10.4581 20.2531 11.0049 20.2531C11.5518 20.2531 12.0898 20.1151 12.5691 19.8519C13.0484 19.5887 13.4536 19.2088 13.7471 18.7475C13.9165 18.4812 14.2344 18.3494 14.5425 18.4178C15.0767 18.5364 15.6322 18.5182 16.1575 18.3649C16.6828 18.2116 17.1608 17.9281 17.5473 17.5408C17.9339 17.1534 18.2163 16.6748 18.3686 16.1492C18.5208 15.6236 18.5378 15.068 18.4181 14.5341C18.3491 14.2262 18.4801 13.9081 18.7459 13.7381C19.2056 13.4442 19.5838 13.0394 19.8458 12.5609C20.1078 12.0823 20.2452 11.5456 20.2452 11C20.2452 10.4545 20.1078 9.91767 19.8458 9.43915C19.5838 8.96063 19.2056 8.55577 18.7459 8.26188C18.48 8.09183 18.349 7.77347 18.4182 7.46549C18.5384 6.93073 18.5215 6.37425 18.3689 5.8478C18.2163 5.32136 17.933 4.84206 17.5455 4.45449C17.1579 4.06692 16.6786 3.78366 16.1522 3.63107C15.6257 3.47848 15.0692 3.46151 14.5345 3.58174C14.2265 3.65098 13.9081 3.51998 13.7381 3.25403C13.4442 2.7944 13.0393 2.41614 12.5608 2.15414C12.0823 1.89213 11.5455 1.75479 10.9999 1.75479ZM8.7187 0.838448C9.41808 0.455511 10.2026 0.254791 10.9999 0.254791C11.7973 0.254791 12.5818 0.455511 13.2812 0.838448C13.8317 1.13985 14.3154 1.5465 14.7059 2.03355C15.3298 1.96197 15.9634 2.01462 16.5697 2.19037C17.3392 2.41339 18.0397 2.82738 18.6061 3.39383C19.1726 3.96028 19.5866 4.6608 19.8096 5.43021C19.9853 6.03656 20.038 6.67018 19.9664 7.29404C20.4535 7.68453 20.8601 8.1683 21.1615 8.71876C21.5444 9.41813 21.7452 10.2027 21.7452 11C21.7452 11.7974 21.5444 12.5819 21.1615 13.2813C20.8601 13.8318 20.4533 14.3156 19.9662 14.7062C20.0373 15.3289 19.9846 15.9612 19.8094 16.5664C19.5869 17.3346 19.174 18.0342 18.6091 18.6003C18.0442 19.1664 17.3455 19.5807 16.5778 19.8048C15.9729 19.9813 15.3407 20.0353 14.7179 19.9655C14.3274 20.455 13.8428 20.8638 13.291 21.1667C12.5905 21.5514 11.8042 21.7531 11.0049 21.7531C10.2057 21.7531 9.41943 21.5514 8.71886 21.1667C8.16737 20.864 7.68304 20.4555 7.29263 19.9664C6.67031 20.0373 6.03836 19.9846 5.43352 19.8094C4.66533 19.5869 3.96575 19.1741 3.39964 18.6092C2.83354 18.0442 2.41923 17.3455 2.19515 16.5778C2.01872 15.9734 1.9647 15.3416 2.03429 14.7192C1.54287 14.3287 1.13232 13.8437 0.827994 13.2909C0.441623 12.5892 0.239014 11.8011 0.239014 11C0.239014 10.1989 0.441623 9.41083 0.827994 8.70906C1.13232 8.15632 1.54287 7.67127 2.03429 7.28085C1.9647 6.65842 2.01872 6.02663 2.19515 5.4222C2.41923 4.65448 2.83354 3.95576 3.39964 3.39084C3.96575 2.82592 4.66533 2.41308 5.43352 2.1906C6.03873 2.01533 6.67109 1.96268 7.29379 2.03378C7.68431 1.54663 8.16815 1.1399 8.7187 0.838448ZM11.3005 6.77792C10.7768 6.68809 10.2382 6.78651 9.78006 7.05574C9.32195 7.32497 8.97392 7.74764 8.79759 8.24889C8.66013 8.63963 8.23195 8.84496 7.84121 8.70751C7.45046 8.57005 7.24513 8.14186 7.38259 7.75112C7.67647 6.91571 8.25653 6.21126 9.02003 5.76254C9.78353 5.31382 10.6812 5.1498 11.5541 5.29951C12.4269 5.44923 13.2186 5.90303 13.7889 6.58053C14.3591 7.25787 14.6713 8.1151 14.6701 9.00047C14.6699 10.3984 13.6313 11.3439 12.8361 11.874C12.4156 12.1544 12.0005 12.3614 11.6934 12.4979C11.5388 12.5666 11.409 12.6186 11.316 12.654C11.2694 12.6717 11.232 12.6854 11.205 12.6949L11.1727 12.7063L11.1628 12.7096L11.1595 12.7108L11.1582 12.7112C11.158 12.7113 11.1573 12.7115 10.9201 12L11.1573 12.7115C10.7643 12.8425 10.3396 12.6301 10.2086 12.2372C10.0777 11.8446 10.2896 11.4203 10.6818 11.2889C10.6819 11.2888 10.6828 11.2885 10.6829 11.2885L10.6847 11.2879L10.7025 11.2816C10.7196 11.2756 10.7465 11.2658 10.782 11.2523C10.8531 11.2252 10.9576 11.1834 11.0842 11.1271C11.3397 11.0136 11.6745 10.8457 12.0041 10.626C12.7088 10.1562 13.1701 9.60186 13.1701 9L13.1701 8.99889C13.1709 8.46753 12.9836 7.95304 12.6414 7.54653C12.2992 7.14003 11.8242 6.86775 11.3005 6.77792ZM10.25 16C10.25 15.5858 10.5858 15.25 11 15.25H11.01C11.4242 15.25 11.76 15.5858 11.76 16C11.76 16.4142 11.4242 16.75 11.01 16.75H11C10.5858 16.75 10.25 16.4142 10.25 16Z" fill="#B5CDFE"/>
</svg>
