<svg width="24" height="24" viewBox="0 0 24 24" fill="none" xmlns="http://www.w3.org/2000/svg">
<path d="M20.59 10.55V7.12C20.59 5.89 19.65 4.53 18.5 4.1L13.51 2.23C12.68 1.92 11.32 1.92 10.49 2.23L5.5 4.11C4.35 4.54 3.41 5.9 3.41 7.12V14.55C3.41 15.73 4.19 17.28 5.14 17.99L9.44 21.2C10.14 21.74 11.07 22 12 22" stroke="#B5CDFE" stroke-width="1.5" stroke-linecap="round" stroke-linejoin="round"/>
<path d="M16 20C18.2091 20 20 18.2091 20 16C20 13.7909 18.2091 12 16 12C13.7909 12 12 13.7909 12 16C12 18.2091 13.7909 20 16 20Z" stroke="#B5CDFE" stroke-width="1.5" stroke-linecap="round" stroke-linejoin="round"/>
<path d="M20.9955 21H21.0045" stroke="#B5CDFE" stroke-width="2" stroke-linecap="round" stroke-linejoin="round"/>
</svg>
