<svg width="18" height="18" viewBox="0 0 18 18" fill="none" xmlns="http://www.w3.org/2000/svg">
<path d="M13.35 14.8627L11.721 15.7162C11.6727 15.7414 11.6183 15.7526 11.5639 15.7487C11.5096 15.7447 11.4574 15.7257 11.4132 15.6938C11.369 15.6619 11.3345 15.6184 11.3137 15.568C11.2928 15.5177 11.2863 15.4625 11.295 15.4087L11.6062 13.6005L10.2885 12.3202C10.2492 12.2822 10.2213 12.2339 10.2081 12.1808C10.1949 12.1277 10.1969 12.072 10.2139 12.02C10.2309 11.968 10.2621 11.9218 10.3041 11.8867C10.3461 11.8516 10.3971 11.829 10.4512 11.8215L12.2722 11.5575L13.0867 9.91273C13.1111 9.86374 13.1486 9.82253 13.1952 9.79371C13.2417 9.7649 13.2953 9.74963 13.35 9.74963C13.4047 9.74963 13.4583 9.7649 13.5048 9.79371C13.5513 9.82253 13.5889 9.86374 13.6132 9.91273L14.4277 11.5575L16.2487 11.8215C16.3028 11.8293 16.3536 11.852 16.3953 11.8871C16.4371 11.9222 16.4682 11.9684 16.4852 12.0203C16.5021 12.0722 16.5042 12.1278 16.4912 12.1808C16.4781 12.2338 16.4505 12.2821 16.4115 12.3202L15.0937 13.6005L15.4042 15.408C15.4136 15.4619 15.4076 15.5173 15.387 15.568C15.3664 15.6187 15.332 15.6625 15.2877 15.6946C15.2434 15.7267 15.191 15.7458 15.1364 15.7496C15.0819 15.7534 15.0273 15.7419 14.979 15.7162L13.35 14.8627Z" stroke="#28635B" stroke-width="1.5" stroke-linecap="round" stroke-linejoin="round"/>
<path d="M4.65001 14.8627L3.02101 15.7162C2.97267 15.7414 2.91829 15.7526 2.86393 15.7487C2.80958 15.7447 2.75739 15.7257 2.71321 15.6938C2.66902 15.6619 2.63456 15.6184 2.61369 15.568C2.59282 15.5177 2.58636 15.4625 2.59501 15.4087L2.90626 13.6005L1.58851 12.3202C1.54918 12.2822 1.52133 12.2339 1.50815 12.1808C1.49496 12.1277 1.49696 12.072 1.51394 12.02C1.53091 11.968 1.56216 11.9218 1.60412 11.8867C1.64609 11.8516 1.69707 11.829 1.75126 11.8215L3.57226 11.5575L4.38676 9.91273C4.41112 9.86374 4.44867 9.82253 4.49517 9.79371C4.54168 9.7649 4.5953 9.74963 4.65001 9.74963C4.70472 9.74963 4.75835 9.7649 4.80485 9.79371C4.85136 9.82253 4.8889 9.86374 4.91326 9.91273L5.72776 11.5575L7.54876 11.8215C7.60279 11.8293 7.65357 11.852 7.69535 11.8871C7.73713 11.9222 7.76825 11.9684 7.78518 12.0203C7.80212 12.0722 7.80419 12.1278 7.79117 12.1808C7.77815 12.2338 7.75056 12.2821 7.71151 12.3202L6.39376 13.6005L6.70426 15.408C6.71358 15.4619 6.7076 15.5173 6.687 15.568C6.66639 15.6187 6.63199 15.6625 6.58771 15.6946C6.54342 15.7267 6.49102 15.7458 6.43645 15.7496C6.38188 15.7534 6.32734 15.7419 6.27901 15.7162L4.65001 14.8627Z" stroke="#28635B" stroke-width="1.5" stroke-linecap="round" stroke-linejoin="round"/>
<path d="M9 7.36273L7.371 8.21623C7.32266 8.24139 7.26828 8.25262 7.21392 8.24866C7.15957 8.24471 7.10739 8.22572 7.0632 8.19382C7.01901 8.16193 6.98456 8.11838 6.96368 8.06803C6.94281 8.01769 6.93635 7.96254 6.945 7.90873L7.25625 6.10048L5.9385 4.82023C5.89917 4.78221 5.87132 4.73389 5.85814 4.6808C5.84495 4.62771 5.84696 4.57197 5.86393 4.51997C5.8809 4.46796 5.91215 4.42177 5.95411 4.38667C5.99608 4.35158 6.04707 4.32899 6.10125 4.32148L7.92225 4.05748L8.73675 2.41273C8.76111 2.36374 8.79866 2.32253 8.84516 2.29371C8.89167 2.2649 8.94529 2.24963 9 2.24963C9.05471 2.24963 9.10834 2.2649 9.15484 2.29371C9.20135 2.32253 9.23889 2.36374 9.26325 2.41273L10.0778 4.05748L11.8988 4.32148C11.9528 4.32925 12.0036 4.35199 12.0453 4.38712C12.0871 4.42225 12.1182 4.46837 12.1352 4.52026C12.1521 4.57216 12.1542 4.62775 12.1412 4.68076C12.1281 4.73378 12.1006 4.78209 12.0615 4.82023L10.7438 6.10048L11.0543 7.90798C11.0636 7.96188 11.0576 8.01731 11.037 8.06799C11.0164 8.11866 10.982 8.16254 10.9377 8.19464C10.8934 8.22674 10.841 8.24578 10.7864 8.2496C10.7319 8.25342 10.6773 8.24186 10.629 8.21623L9 7.36273Z" stroke="#28635B" stroke-width="1.5" stroke-linecap="round" stroke-linejoin="round"/>
</svg>
